<?xml version="1.0" encoding="UTF-8" standalone="no"?><!DOCTYPE svg PUBLIC "-//W3C//DTD SVG 1.1//EN" "http://www.w3.org/Graphics/SVG/1.1/DTD/svg11.dtd"><svg width="100%" height="100%" viewBox="0 0 1000 1000" version="1.1" xmlns="http://www.w3.org/2000/svg" xmlns:xlink="http://www.w3.org/1999/xlink" xml:space="preserve" xmlns:serif="http://www.serif.com/" style="fill-rule:evenodd;clip-rule:evenodd;stroke-linejoin:round;stroke-miterlimit:2;"><g><g><path d="M467.64,58.99c-17.08,5.45 -30.45,13.86 -43.82,27.73c-7.43,7.67 -67.84,112.4 -206.48,357.49c-107.94,190.63 -198.06,351.8 -200.53,357.99c-24.01,61.89 18.07,130.96 85.66,140.87c23.77,3.22 770.94,3.22 794.71,0c48.52,-7.18 83.93,-42.58 90.86,-91.11c5.2,-37.14 15.84,-15.85 -204.25,-405.28c-206.72,-365.16 -206.23,-364.17 -230.74,-378.53c-23.52,-13.87 -59.17,-17.58 -85.41,-9.16Zm71.3,179.98c23.02,11.39 32.68,37.63 32.68,89.87c0,35.4 -18.57,252.77 -23.52,276.04c-7.18,32.68 -20.06,46.05 -45.06,46.05c-22.53,0 -34.91,-13.62 -41.59,-46.79c-4.46,-20.3 -18.82,-228.51 -19.31,-278.77c-0.5,-44.56 2.72,-56.94 19.06,-73.78c19.06,-19.8 52.74,-25 77.74,-12.62Zm-1.98,475.83c24.26,12.13 36.39,34.66 33.92,64.12c-2.72,36.14 -32.18,60.16 -69.57,57.19c-32.68,-2.72 -56.2,-25 -59.91,-56.94c-3.71,-31.94 16.59,-61.64 48.03,-70.31c15.35,-4.2 30.69,-2.23 47.53,5.94Z" style="fill:#3a53cf;fill-rule:nonzero;"/></g></g></svg>